Coordinates
version=1
nRows=24
nColumns=24
inDegrees=yes

Units are S.I. units (second, meters, Newtons, ...)
Angles are in degrees.

endheader
time	pelvis_tilt	pelvis_list	pelvis_rotation	pelvis_tx	pelvis_ty	pelvis_tz	hip_flexion_r	hip_adduction_r	hip_rotation_r	knee_angle_r	ankle_angle_r	subtalar_angle_r	mtp_angle_r	hip_flexion_l	hip_adduction_l	hip_rotation_l	knee_angle_l	ankle_angle_l	subtalar_angle_l	mtp_angle_l	lumbar_extension	lumbar_bending	lumbar_rotation
      2.88500000	      4.75126378	      7.41779690	      0.32040607	      0.11535368	      0.99165667	      0.00012017	      8.58430649	     -6.07977921	    -10.95727779	    -17.67823176	      4.12983480	     -3.23268021	     -1.86346758	     14.23716432	      5.87218878	     -4.43947589	    -61.32762923	      2.67051117	      3.86562384	     52.40977367	    -18.25765349	     -8.14796992	     28.31970534
      2.89000000	      4.72142045	      7.45693317	      0.25610472	      0.11981259	      0.99219000	      0.00041460	      8.24606885	     -6.08039872	    -10.91503425	    -17.51900639	      4.29335066	     -3.22850176	     -1.84602843	     14.77331713	      5.85471839	     -4.60587893	    -61.08703532	      3.08333101	      3.74793922	     52.35419103	    -18.25409849	     -8.24241981	     28.29553187
      2.89500000	      4.60934240	      7.51023728	      0.13521304	      0.12420152	      0.99254876	      0.00076607	      8.04183087	     -6.08910326	    -10.76825031	    -17.41239517	      4.49252714	     -3.24652536	     -1.93480978	     15.39625238	      5.83084257	     -4.85083116	    -60.82607996	      3.58943208	      3.80378648	     50.69245433	    -18.15311682	     -8.37053177	     28.39913355
      2.90000000	      4.65328968	      7.60179382	      0.02988681	      0.12869743	      0.99319473	      0.00106926	      7.61598097	     -6.14692033	    -10.69175113	    -17.22856692	      4.66344783	     -3.19584956	     -1.92921300	     15.79400234	      5.85744119	     -5.07525750	    -60.41718300	      3.92826471	      3.67873168	     50.47351154	    -18.22706909	     -8.52866213	     28.41911761
      2.90500000	      4.70593498	      7.69221252	     -0.03613299	      0.13322431	      0.99386405	      0.00129975	      7.15868010	     -6.21183715	    -10.70399019	    -17.01981109	      4.80452458	     -3.15529583	     -2.00038774	     16.16087121	      5.89556219	     -5.26177814	    -59.95774161	      4.33056314	      3.63983307	     49.49297768	    -18.30859404	     -8.67468907	     28.49031880
      2.91000000	      4.66685995	      7.74998558	     -0.07322246	      0.13767079	      0.99434230	      0.00150105	      6.81695060	     -6.23516856	    -10.64763665	    -16.83945700	      4.95664128	     -3.18795929	     -1.98947764	     16.63109117	      5.90153737	     -5.42345954	    -59.46644689	      4.64953227	      3.54497655	     49.43902044	    -18.30065728	     -8.78034219	     28.42357324
      2.91500000	      4.71456561	      7.85948787	     -0.15831355	      0.14216893	      0.99495468	      0.00172769	      6.37822982	     -6.31878574	    -10.59587826	    -16.64575884	      5.14121013	     -3.13479950	     -2.12013642	     16.96524481	      5.95340556	     -5.64549332	    -58.88979609	      5.01259674	      3.56350280	     48.11506679	    -18.38031909	     -8.95038240	     28.43732954
      2.92000000	      4.66343904	      7.95230728	     -0.18585454	      0.14661438	      0.99540491	      0.00187397	      6.04936069	     -6.38602851	    -10.56435329	    -16.46396486	      5.26251995	     -3.17224664	     -2.11445530	     17.40231876	      6.00575385	     -5.80942611	    -58.26293226	      5.27101711	      3.46070789	     48.07153715	    -18.35872139	     -9.09181298	     28.43134089
      2.92500000	      4.69041984	      8.09980984	     -0.29245011	      0.15108308	      0.99595874	      0.00212143	      5.65045822	     -6.50990800	    -10.47130584	    -16.28756452	      5.44605517	     -3.12205395	     -2.12246399	     17.71385743	      6.09618023	     -6.06377742	    -57.53185918	      5.41747246	      3.31584750	     47.82047992	    -18.41655488	     -9.31414143	     28.47787085
      2.93000000	      4.71426465	      8.23030400	     -0.34961032	      0.15556488	      0.99648656	      0.00226389	      5.23973567	     -6.62409164	    -10.45418728	    -16.10205763	      5.61272037	     -3.08996937	     -2.14909785	     18.01005942	      6.18854131	     -6.26522852	    -56.75649775	      5.59817681	      3.23892669	     47.50437080	    -18.47466456	     -9.49831101	     28.48170887
      2.93500000	      4.74663282	      8.35531401	     -0.39067233	      0.16004054	      0.99700265	      0.00238116	      4.81379404	     -6.73491451	    -10.46045657	    -15.91002206	      5.77204238	     -3.04434965	     -2.19066587	     18.27773701	      6.28477947	     -6.44556991	    -55.92965554	      5.76536808	      3.17991462	     47.12945061	    -18.54619284	     -9.67235837	     28.47495443
      2.94000000	      4.67332381	      8.42457784	     -0.37367240	      0.16448034	      0.99732445	      0.00244160	      4.50147978	     -6.78253194	    -10.50440466	    -15.72535927	      5.86299777	     -3.07671821	     -2.20118192	     18.66054338	      6.33734948	     -6.56036787	    -55.09593621	      5.95634932	      3.14396871	     47.02469822	    -18.50285109	     -9.77849814	     28.48125388
      2.94500000	      4.79218724	      8.55749380	     -0.43900458	      0.16902327	      0.99793301	      0.00255409	      3.97326153	     -6.91252014	    -10.57434246	    -15.52145593	      6.06533820	     -2.89143181	     -2.30219588	     18.77118029	      6.44855434	     -6.76015714	    -54.13295158	      6.08588662	      3.08637943	     46.31505513	    -18.66116840	     -9.96242357	     28.53928494
      2.95000000	      4.69894807	      8.65397595	     -0.41422973	      0.17341896	      0.99815738	      0.00259398	      3.70125459	     -6.99013785	    -10.58990573	    -15.36806364	      6.18612836	     -2.96867808	     -2.31050256	     19.13766867	      6.53838364	     -6.86891354	    -53.18826476	      6.15776544	      3.12897530	     46.22421825	    -18.60779152	    -10.09669211	     28.48027510
      2.95500000	      4.77802977	      8.77912761	     -0.48061173	      0.17794437	      0.99863903	      0.00270284	      3.23555710	     -7.11338428	    -10.64338242	    -15.19656660	      6.38859012	     -2.79748948	     -2.38497409	     19.25101738	      6.64479221	     -7.07184277	    -52.12212983	      6.22108439	      3.09879615	     45.72074172	    -18.72162339	    -10.27476559	     28.52835598
      2.96000000	      4.72902980	      8.88737133	     -0.48660390	      0.18237092	      0.99887631	      0.00278120	      2.92885666	     -7.20873591	    -10.67649155	    -15.06597338	      6.56718875	     -2.81246384	     -2.40596852	     19.51140642	      6.74007374	     -7.22522528	    -51.04867944	      6.20225065	      3.17212740	     45.53157243	    -18.71291467	    -10.43000926	     28.46690479
      2.96500000	      4.79551322	      8.98167682	     -0.46522289	      0.18691464	      0.99928295	      0.00275003	      2.44792486	     -7.30259973	    -10.82806723	    -14.87098601	      6.72865537	     -2.67519736	     -2.56888500	     19.59668180	      6.85726017	     -7.31378937	    -49.89896389	      6.27012158	      3.26196525	     44.85506880	    -18.82468592	    -10.54828576	     28.43671862
      2.97000000	      4.73392895	      9.08433998	     -0.50940689	      0.19133810	      0.99941943	      0.00283820	      2.18268047	     -7.39920646	    -10.83077007	    -14.77648456	      6.92336967	     -2.63694308	     -2.56756398	     19.81824726	      6.94429541	     -7.50589902	    -48.71166960	      6.21960758	      3.31385193	     44.74863191	    -18.79231765	    -10.70422508	     28.48750289
      2.97500000	      4.73232565	      9.18257416	     -0.54361191	      0.19584075	      0.99964425	      0.00286490	      1.82565327	     -7.49947127	    -10.88920775	    -14.64498958	      7.08852708	     -2.50791167	     -2.59211692	     19.92901369	      7.04876674	     -7.66354631	    -47.44331203	      6.18327630	      3.36397316	     44.57218554	    -18.82057379	    -10.84608141	     28.54480794
      2.98000000	      4.75826046	      9.27629600	     -0.56087121	      0.20035293	      0.99986956	      0.00287160	      1.43496756	     -7.59608580	    -11.00319398	    -14.51657632	      7.27134938	     -2.39935307	     -2.63478056	     19.98317770	      7.15263889	     -7.81836690	    -46.12226631	      6.09865497	      3.45822483	     44.37486517	    -18.88429167	    -10.97731983	     28.56960905
      2.98500000	      4.72998175	      9.36600588	     -0.59809637	      0.20483117	      0.99997208	      0.00288824	      1.12807259	     -7.68832439	    -11.03535832	    -14.41949097	      7.46877861	     -2.31141817	     -2.65200739	     20.07423759	      7.24660578	     -7.99573261	    -44.75133714	      5.98123178	      3.58005785	     44.25306878	    -18.88750782	    -11.10845660	     28.58498872
      2.99000000	      4.73817536	      9.44659591	     -0.63757866	      0.20933757	      1.00008643	      0.00291457	      0.77453621	     -7.77235527	    -11.10388438	    -14.31327537	      7.65950782	     -2.19007943	     -2.68271897	     20.09128773	      7.33327275	     -8.17736635	    -43.31730106	      5.84808738	      3.70338412	     44.12868599	    -18.92779815	    -11.23232432	     28.63838716
      2.99500000	      4.70857567	      9.52198686	     -0.68703103	      0.21381663	      1.00009547	      0.00295515	      0.48639558	     -7.85012893	    -11.14491393	    -14.24633471	      7.89047714	     -2.11447081	     -2.69618169	     20.12723406	      7.40649911	     -8.39202413	    -41.83780637	      5.68062859	      3.85527102	     44.04524461	    -18.92884105	    -11.35604058	     28.65825029
      3.00000000	      4.71633585	      9.60013019	     -0.75485135	      0.21834062	      1.00014626	      0.00297705	      0.14949436	     -7.93729044	    -11.18901928	    -14.16112996	      8.10119328	     -1.97772664	     -2.72447500	     20.07832267	      7.48877110	     -8.61686526	    -40.27662517	      5.48690436	      4.01359887	     43.96782534	    -18.96144939	    -11.48142617	     28.74233319
